<?xml version="1.0" standalone="no"?>
<!DOCTYPE svg PUBLIC "-//W3C//DTD SVG 20010904//EN"
 "http://www.w3.org/TR/2001/REC-SVG-20010904/DTD/svg10.dtd">
<svg version="1.0" xmlns="http://www.w3.org/2000/svg"
 width="700.000000pt" height="700.000000pt" viewBox="0 0 700.000000 700.000000"
 preserveAspectRatio="xMidYMid meet">
<metadata>
Created by potrace 1.14, written by Peter Selinger 2001-2017
</metadata>
<g transform="translate(0.000000,700.000000) scale(0.100000,-0.100000)"
fill="#000000" stroke="none">
<path d="M3280 6994 c-19 -2 -84 -9 -145 -14 -410 -40 -846 -169 -1225 -362
-343 -176 -628 -387 -908 -672 -561 -572 -883 -1252 -984 -2081 -16 -133 -16
-590 0 -730 74 -625 284 -1178 634 -1669 211 -295 519 -603 813 -813 491 -351
1038 -559 1670 -635 135 -16 590 -16 735 1 705 80 1348 354 1880 802 134 113
345 325 452 455 433 526 696 1153 780 1859 16 139 16 595 0 730 -103 852 -447
1557 -1043 2141 -555 542 -1249 874 -2029 970 -117 15 -553 27 -630 18z m466
-1718 c246 -122 269 -142 269 -221 0 -46 -4 -58 -29 -84 -41 -42 -86 -56 -133
-40 -21 6 -109 47 -195 90 l-158 79 -157 -79 c-207 -103 -223 -108 -276 -87
-79 31 -110 121 -67 191 19 30 53 51 241 145 165 83 229 110 258 110 29 0 91
-26 247 -104z m-1341 -500 c37 -24 58 -62 58 -106 0 -64 -28 -98 -122 -146
-46 -24 -86 -45 -88 -48 -3 -3 31 -23 75 -45 82 -41 131 -87 134 -124 7 -99
-42 -157 -132 -157 -29 0 -69 15 -140 50 -55 28 -102 50 -104 50 -2 0 -6 -69
-8 -153 -3 -165 -10 -188 -64 -224 -36 -23 -108 -21 -142 4 -60 44 -63 60 -60
365 3 263 4 278 24 305 14 19 93 65 244 142 199 101 228 113 262 108 21 -3 50
-12 63 -21z m2517 -88 c154 -79 229 -122 243 -141 19 -27 20 -45 23 -305 2
-249 1 -280 -15 -311 -49 -95 -170 -101 -230 -13 -15 23 -19 52 -21 180 -2 83
-6 152 -8 152 -2 0 -49 -22 -104 -50 -108 -54 -157 -62 -210 -35 -59 31 -82
130 -43 183 10 15 61 49 113 76 l94 49 -98 49 c-89 45 -99 53 -117 93 -16 37
-18 51 -10 83 16 59 70 100 133 101 16 1 122 -47 250 -111z m-1608 -753 c96
-47 182 -85 190 -85 9 0 93 38 186 85 109 55 181 85 202 85 104 0 167 -132
102 -210 -18 -21 -84 -60 -195 -115 l-168 -85 -3 -231 -3 -231 -37 -34 c-33
-29 -45 -34 -88 -34 -43 0 -55 5 -88 34 l-37 34 -3 231 -3 231 -167 84 c-92
46 -178 95 -191 110 -34 36 -39 110 -11 154 22 35 68 61 112 62 14 0 105 -38
202 -85z m-1294 -814 c54 -38 60 -67 60 -298 l0 -212 172 -88 c189 -96 211
-117 211 -193 0 -47 -22 -84 -66 -110 -56 -35 -82 -27 -316 90 -170 85 -225
117 -243 142 -22 32 -23 40 -26 283 -4 303 -2 325 43 370 49 48 110 54 165 16z
m3101 4 c16 -9 39 -30 49 -48 19 -30 20 -52 20 -308 0 -270 -1 -277 -22 -310
-19 -28 -64 -55 -246 -146 -237 -120 -263 -128 -319 -93 -64 39 -84 111 -49
178 14 27 45 46 191 119 l173 87 4 220 c3 195 5 225 22 252 37 61 113 82 177
49z m-1564 -772 c64 -30 73 -58 73 -230 0 -84 2 -153 4 -153 3 0 55 25 117 55
62 30 120 55 130 55 10 0 37 -7 59 -16 73 -30 103 -122 60 -191 -16 -27 -59
-52 -241 -143 -156 -78 -232 -110 -257 -110 -25 0 -102 33 -257 109 -189 93
-225 114 -244 144 -25 41 -27 96 -5 138 16 31 81 68 120 69 12 0 71 -25 133
-55 62 -30 114 -55 117 -55 2 0 4 69 4 153 0 171 9 199 71 230 43 21 72 21
116 0z"/>
</g>
</svg>
