<svg width="205" height="31" viewBox="0 0 205 31" fill="none"
    xmlns="http://www.w3.org/2000/svg">
    <path d="M0.924 13.144C0.924 11.2027 1.344 9.476 2.184 7.964C3.024 6.43333 4.19067 5.248 5.684 4.408C7.196 3.54933 8.904 3.12 10.808 3.12C13.1413 3.12 15.1387 3.736 16.8 4.968C18.4613 6.2 19.572 7.88 20.132 10.008H14.868C14.476 9.18667 13.916 8.56133 13.188 8.132C12.4787 7.70267 11.6667 7.488 10.752 7.488C9.27733 7.488 8.08267 8.00133 7.168 9.028C6.25333 10.0547 5.796 11.4267 5.796 13.144C5.796 14.8613 6.25333 16.2333 7.168 17.26C8.08267 18.2867 9.27733 18.8 10.752 18.8C11.6667 18.8 12.4787 18.5853 13.188 18.156C13.916 17.7267 14.476 17.1013 14.868 16.28H20.132C19.572 18.408 18.4613 20.088 16.8 21.32C15.1387 22.5333 13.1413 23.14 10.808 23.14C8.904 23.14 7.196 22.72 5.684 21.88C4.19067 21.0213 3.024 19.836 2.184 18.324C1.344 16.812 0.924 15.0853 0.924 13.144ZM30.1761 23.224C28.6455 23.224 27.2641 22.8973 26.0321 22.244C24.8188 21.5907 23.8575 20.6573 23.1481 19.444C22.4575 18.2307 22.1121 16.812 22.1121 15.188C22.1121 13.5827 22.4668 12.1733 23.1761 10.96C23.8855 9.728 24.8561 8.78533 26.0881 8.132C27.3201 7.47867 28.7015 7.152 30.2321 7.152C31.7628 7.152 33.1441 7.47867 34.3761 8.132C35.6081 8.78533 36.5788 9.728 37.2881 10.96C37.9975 12.1733 38.3521 13.5827 38.3521 15.188C38.3521 16.7933 37.9881 18.212 37.2601 19.444C36.5508 20.6573 35.5708 21.5907 34.3201 22.244C33.0881 22.8973 31.7068 23.224 30.1761 23.224ZM30.1761 19.08C31.0908 19.08 31.8655 18.744 32.5001 18.072C33.1535 17.4 33.4801 16.4387 33.4801 15.188C33.4801 13.9373 33.1628 12.976 32.5281 12.304C31.9121 11.632 31.1468 11.296 30.2321 11.296C29.2988 11.296 28.5241 11.632 27.9081 12.304C27.2921 12.9573 26.9841 13.9187 26.9841 15.188C26.9841 16.4387 27.2828 17.4 27.8801 18.072C28.4961 18.744 29.2615 19.08 30.1761 19.08ZM60.8283 7.208C62.7696 7.208 64.3096 7.796 65.4483 8.972C66.6056 10.148 67.1843 11.7813 67.1843 13.872V23H62.4243V14.516C62.4243 13.508 62.1536 12.7333 61.6123 12.192C61.0896 11.632 60.3616 11.352 59.4283 11.352C58.4949 11.352 57.7576 11.632 57.2163 12.192C56.6936 12.7333 56.4323 13.508 56.4323 14.516V23H51.6723V14.516C51.6723 13.508 51.4016 12.7333 50.8603 12.192C50.3376 11.632 49.6096 11.352 48.6763 11.352C47.7429 11.352 47.0056 11.632 46.4643 12.192C45.9416 12.7333 45.6803 13.508 45.6803 14.516V23H40.8923V7.376H45.6803V9.336C46.1656 8.68267 46.8003 8.16933 47.5843 7.796C48.3683 7.404 49.2549 7.208 50.2443 7.208C51.4203 7.208 52.4656 7.46 53.3803 7.964C54.3136 8.468 55.0416 9.18667 55.5643 10.12C56.1056 9.26133 56.8429 8.56133 57.7763 8.02C58.7096 7.47867 59.7269 7.208 60.8283 7.208ZM90.4689 7.208C92.4102 7.208 93.9502 7.796 95.0889 8.972C96.2462 10.148 96.8249 11.7813 96.8249 13.872V23H92.0649V14.516C92.0649 13.508 91.7942 12.7333 91.2529 12.192C90.7302 11.632 90.0022 11.352 89.0689 11.352C88.1355 11.352 87.3982 11.632 86.8569 12.192C86.3342 12.7333 86.0729 13.508 86.0729 14.516V23H81.3129V14.516C81.3129 13.508 81.0422 12.7333 80.5009 12.192C79.9782 11.632 79.2502 11.352 78.3169 11.352C77.3835 11.352 76.6462 11.632 76.1049 12.192C75.5822 12.7333 75.3209 13.508 75.3209 14.516V23H70.5329V7.376H75.3209V9.336C75.8062 8.68267 76.4409 8.16933 77.2249 7.796C78.0089 7.404 78.8955 7.208 79.8849 7.208C81.0609 7.208 82.1062 7.46 83.0209 7.964C83.9542 8.468 84.6822 9.18667 85.2049 10.12C85.7462 9.26133 86.4835 8.56133 87.4169 8.02C88.3502 7.47867 89.3675 7.208 90.4689 7.208ZM115.602 7.376V23H110.814V20.872C110.328 21.5627 109.666 22.1227 108.826 22.552C108.004 22.9627 107.09 23.168 106.082 23.168C104.887 23.168 103.832 22.9067 102.918 22.384C102.003 21.8427 101.294 21.068 100.79 20.06C100.286 19.052 100.034 17.8667 100.034 16.504V7.376H104.794V15.86C104.794 16.9053 105.064 17.7173 105.606 18.296C106.147 18.8747 106.875 19.164 107.79 19.164C108.723 19.164 109.46 18.8747 110.002 18.296C110.543 17.7173 110.814 16.9053 110.814 15.86V7.376H115.602ZM128.561 7.208C130.39 7.208 131.846 7.80533 132.929 9C134.03 10.176 134.581 11.8 134.581 13.872V23H129.821V14.516C129.821 13.4707 129.55 12.6587 129.009 12.08C128.467 11.5013 127.739 11.212 126.825 11.212C125.91 11.212 125.182 11.5013 124.641 12.08C124.099 12.6587 123.829 13.4707 123.829 14.516V23H119.041V7.376H123.829V9.448C124.314 8.75733 124.967 8.216 125.789 7.824C126.61 7.41333 127.534 7.208 128.561 7.208ZM140.316 5.752C139.476 5.752 138.785 5.50933 138.244 5.024C137.721 4.52 137.46 3.904 137.46 3.176C137.46 2.42933 137.721 1.81333 138.244 1.328C138.785 0.823998 139.476 0.571998 140.316 0.571998C141.137 0.571998 141.809 0.823998 142.332 1.328C142.873 1.81333 143.144 2.42933 143.144 3.176C143.144 3.904 142.873 4.52 142.332 5.024C141.809 5.50933 141.137 5.752 140.316 5.752ZM142.696 7.376V23H137.908V7.376H142.696ZM154.874 18.94V23H152.438C150.702 23 149.348 22.58 148.378 21.74C147.407 20.8813 146.922 19.4907 146.922 17.568V11.352H145.018V7.376H146.922V3.568H151.71V7.376H154.846V11.352H151.71V17.624C151.71 18.0907 151.822 18.4267 152.046 18.632C152.27 18.8373 152.643 18.94 153.166 18.94H154.874ZM173.501 7.376L163.701 30.42H158.549L162.133 22.468L155.777 7.376H161.125L164.737 17.148L168.321 7.376H173.501ZM182.952 23.168C181.4 23.168 179.992 22.808 178.728 22.088C177.464 21.352 176.464 20.336 175.728 19.04C175.008 17.728 174.648 16.248 174.648 14.6C174.648 12.952 175.008 11.48 175.728 10.184C176.464 8.872 177.464 7.856 178.728 7.136C179.992 6.4 181.4 6.032 182.952 6.032C184.52 6.032 185.936 6.4 187.2 7.136C188.464 7.856 189.456 8.872 190.176 10.184C190.896 11.48 191.256 12.952 191.256 14.6C191.256 16.248 190.896 17.728 190.176 19.04C189.456 20.336 188.464 21.352 187.2 22.088C185.936 22.808 184.52 23.168 182.952 23.168ZM182.952 21.704C184.2 21.704 185.32 21.416 186.312 20.84C187.304 20.264 188.088 19.44 188.664 18.368C189.24 17.28 189.528 16.024 189.528 14.6C189.528 13.176 189.24 11.928 188.664 10.856C188.088 9.784 187.304 8.96 186.312 8.384C185.32 7.808 184.2 7.52 182.952 7.52C181.704 7.52 180.584 7.808 179.592 8.384C178.6 8.96 177.816 9.784 177.24 10.856C176.664 11.928 176.376 13.176 176.376 14.6C176.376 16.024 176.664 17.28 177.24 18.368C177.816 19.44 178.6 20.264 179.592 20.84C180.584 21.416 181.704 21.704 182.952 21.704ZM199.418 23.168C198.314 23.168 197.338 22.976 196.49 22.592C195.658 22.208 195.002 21.672 194.522 20.984C194.042 20.296 193.786 19.528 193.754 18.68H195.53C195.61 19.496 195.97 20.216 196.61 20.84C197.25 21.448 198.186 21.752 199.418 21.752C200.554 21.752 201.45 21.464 202.106 20.888C202.778 20.296 203.114 19.552 203.114 18.656C203.114 17.936 202.93 17.36 202.562 16.928C202.194 16.48 201.738 16.152 201.194 15.944C200.65 15.72 199.898 15.48 198.938 15.224C197.818 14.92 196.93 14.624 196.274 14.336C195.618 14.048 195.058 13.6 194.594 12.992C194.13 12.384 193.898 11.56 193.898 10.52C193.898 9.656 194.122 8.888 194.57 8.216C195.018 7.528 195.65 6.992 196.466 6.608C197.282 6.224 198.218 6.032 199.274 6.032C200.826 6.032 202.074 6.416 203.018 7.184C203.978 7.936 204.53 8.912 204.674 10.112H202.85C202.738 9.424 202.362 8.816 201.722 8.288C201.082 7.744 200.218 7.472 199.13 7.472C198.122 7.472 197.282 7.744 196.61 8.288C195.938 8.816 195.602 9.544 195.602 10.472C195.602 11.176 195.786 11.744 196.154 12.176C196.522 12.608 196.978 12.936 197.522 13.16C198.082 13.384 198.834 13.624 199.778 13.88C200.866 14.184 201.746 14.488 202.418 14.792C203.09 15.08 203.658 15.528 204.122 16.136C204.586 16.744 204.818 17.56 204.818 18.584C204.818 19.368 204.61 20.112 204.194 20.816C203.778 21.52 203.162 22.088 202.346 22.52C201.53 22.952 200.554 23.168 199.418 23.168Z" fill="white"/>
</svg>
